<svg xmlns="http://www.w3.org/2000/svg" aria-hidden="true" style="position:absolute;width:0;height:0;overflow:hidden"><defs><symbol id="icon-Checkboxcheck" viewBox="0 0 32 32"><path stroke-width="2.5" d="M4 1.25h24A2.75 2.75 0 0 1 30.75 4v24A2.75 2.75 0 0 1 28 30.75H4A2.75 2.75 0 0 1 1.25 28V4A2.75 2.75 0 0 1 4 1.25z"/></symbol><symbol id="icon-Vectormail" viewBox="0 0 43 32"><path d="M37.333 0h-32c-2.2 0-3.98 1.8-3.98 4l-.02 24c0 2.2 1.8 4 4 4h32c2.2 0 4-1.8 4-4V4c0-2.2-1.8-4-4-4zm-.8 8.5-14.14 8.84c-.64.4-1.48.4-2.12 0L6.133 8.5c-.5-.32-.8-.86-.8-1.44 0-1.34 1.46-2.14 2.6-1.44l13.4 8.38 13.4-8.38c1.14-.7 2.6.1 2.6 1.44 0 .58-.3 1.12-.8 1.44z"/></symbol><symbol id="icon-Vectorphone" viewBox="0 0 32 32"><path d="m28.865 21.822-4.525-.517a3.543 3.543 0 0 0-2.921 1.015l-3.278 3.278A26.8 26.8 0 0 1 6.402 13.859l3.296-3.296a3.545 3.545 0 0 0 1.015-2.921l-.517-4.489A3.566 3.566 0 0 0 6.651 0H3.569C1.556 0-.118 1.675.006 3.687.95 18.9 13.117 31.049 28.312 31.993c2.013.125 3.687-1.55 3.687-3.563v-3.082c.018-1.799-1.336-3.313-3.135-3.527z"/></symbol><symbol id="icon-Vectorname" viewBox="0 0 32 32"><path fill="#4d5ae5" d="M16 16c4.42 0 8-3.58 8-8s-3.58-8-8-8-8 3.58-8 8 3.58 8 8 8zm0 4c-5.34 0-16 2.68-16 8v2c0 1.1.9 2 2 2h28c1.1 0 2-.9 2-2v-2c0-5.32-10.66-8-16-8z" style="fill:var(--color1, #4d5ae5)"/></symbol><symbol id="icon-icon-sendtelegram" viewBox="0 0 38 32"><path fill="#fff" d="M38.4 0 0 18l12.272 3.788L31.2 7 16.803 23.186l.012.004-.014-.004V32l6.882-6.691L32.401 28l6-28z" style="fill:var(--color2, #fff)"/></symbol><symbol id="icon-close" viewBox="0 0 32 32"><path fill="#e7e9fc" d="M32 16c0 8.837-7.163 16-16 16S0 24.837 0 16 7.163 0 16 0s16 7.163 16 16z" style="fill:var(--color3, #e7e9fc)"/><path fill="none" stroke="#000" stroke-width="1.333" d="M31.333 16c0 8.468-6.865 15.333-15.333 15.333S.667 24.468.667 16 7.532.667 16 .667 31.333 7.532 31.333 16z" style="stroke:var(--color4, #000)"/><path d="m21.333 11.741-1.074-1.074L16 14.926l-4.259-4.259-1.074 1.074L14.926 16l-4.259 4.259 1.074 1.074L16 17.074l4.259 4.259 1.074-1.074L17.074 16l4.259-4.259z" style="fill:var(--color4, #000)"/></symbol><symbol id="icon-telegram" viewBox="0 0 32 32"><path d="M16 0C7.162 0 0 7.162 0 16s7.162 16 16 16 16-7.163 16-16S24.837 0 16 0zm7.863 10.969-2.625 12.369c-.181.881-.712 1.087-1.45.681l-4-2.956-1.919 1.869c-.225.219-.4.4-.8.4-.519 0-.431-.194-.606-.688L11.1 18.169l-3.956-1.231c-.856-.262-.862-.85.194-1.269l15.412-5.95c.7-.319 1.381.169 1.113 1.25z"/></symbol></defs></svg>